<svg width="38" height="38" viewBox="0 0 38 38" fill="none" xmlns="http://www.w3.org/2000/svg">
<path d="M18.6 0.409671C14.9217 0.411648 11.3265 1.50432 8.26909 3.54932C5.21165 5.59432 2.82922 8.50005 1.42296 11.8989C0.0167056 15.2978 -0.350234 19.0371 0.36858 22.6445C1.08739 26.2519 2.85964 29.5653 5.46129 32.1655C8.06295 34.7658 11.3772 36.5361 14.985 37.2529C18.5927 37.9698 22.3321 37.601 25.7302 36.1929C29.1283 34.7848 32.0326 32.4008 34.076 29.3423C36.1193 26.2838 37.2099 22.6881 37.2099 19.0098C37.2099 16.5663 36.7286 14.147 35.7932 11.8897C34.8578 9.63234 33.4868 7.58131 31.7586 5.85401C30.0304 4.12671 27.9787 2.75691 25.7209 1.82276C23.4631 0.888607 21.0434 0.408357 18.6 0.409671ZM16.3 20.2598H13.92C13.54 20.2598 13.41 20.1395 13.4 19.7695C13.4 18.7695 13.4 17.7695 13.4 16.7695C13.4 16.3995 13.54 16.2896 13.92 16.2896H16.3V15.9897C16.3 15.0897 16.3 14.1898 16.36 13.2998C16.4228 12.2302 16.8874 11.2236 17.6606 10.4819C18.4339 9.74023 19.4587 9.31813 20.53 9.29981C21.47 9.29981 22.42 9.29981 23.36 9.29981C23.67 9.29981 23.81 9.43 23.81 9.75V12.5596C23.81 12.8796 23.6799 12.9998 23.3299 13.0098C22.6999 13.0098 22.06 13.0098 21.42 13.0098C20.78 13.0098 20.42 13.2998 20.42 14.0098C20.42 14.7198 20.42 15.4097 20.42 16.1397H23.11C23.64 16.1397 23.75 16.2495 23.75 16.7695C23.75 17.7029 23.75 18.6329 23.75 19.5596C23.75 19.9996 23.65 20.1099 23.2099 20.1099H20.42V27.8198C20.42 28.4898 20.34 28.5596 19.67 28.5596H16.92C16.42 28.5596 16.3 28.4497 16.3 27.9497V20.1397V20.2598Z" fill="#F0F0F2"/>
</svg>
