<svg width="38" height="38" viewBox="0 0 38 38" fill="none" xmlns="http://www.w3.org/2000/svg">
<path d="M18.6 37.2096C22.2811 37.2116 25.8802 36.122 28.9419 34.0783C32.0036 32.0346 34.3905 29.1288 35.8006 25.7284C37.2106 22.3281 37.5805 18.5859 36.8636 14.9753C36.1467 11.3646 34.375 8.04766 31.7728 5.44401C29.1705 2.84035 25.8546 1.06694 22.2443 0.348061C18.6341 -0.370821 14.8917 -0.00281882 11.4906 1.40543C8.08944 2.81369 5.18237 5.19882 3.13704 8.25944C1.0917 11.3201 1.57902e-05 14.9186 1.52588e-05 18.5998C1.45465e-05 23.5337 1.95933 28.2655 5.44722 31.7553C8.93511 35.2451 13.666 37.207 18.6 37.2096ZM7.59999 14.4897C7.59999 12.6729 8.32171 10.9305 9.60634 9.64591C10.891 8.36129 12.6333 7.63956 14.45 7.63956H22.67C24.4867 7.63956 26.2291 8.36129 27.5137 9.64591C28.7983 10.9305 29.52 12.6729 29.52 14.4897V22.7196C29.52 23.6187 29.3427 24.509 28.9984 25.3395C28.654 26.17 28.1493 26.9244 27.5131 27.5597C26.8769 28.195 26.1216 28.6988 25.2906 29.0419C24.4596 29.3851 23.5691 29.561 22.67 29.5597H14.45C12.635 29.5597 10.8942 28.8393 9.60988 27.5568C8.32554 26.2743 7.60264 24.5346 7.59999 22.7196V14.4897Z" fill="#F0F0F2"/>
<path d="M14.49 27.51H22.71C23.3403 27.51 23.9645 27.3858 24.5469 27.1445C25.1293 26.9033 25.6584 26.5497 26.1041 26.104C26.5499 25.6583 26.9034 25.1292 27.1446 24.5469C27.3858 23.9645 27.51 23.3403 27.51 22.71V14.51C27.51 13.237 27.0043 12.0161 26.1041 11.116C25.204 10.2158 23.983 9.70996 22.71 9.70996H14.49C13.2187 9.71261 12.0004 10.2195 11.1024 11.1194C10.2044 12.0193 9.70002 13.2387 9.70003 14.51V22.72C9.70267 23.9895 10.2081 25.2065 11.1059 26.1042C12.0036 27.002 13.2204 27.5074 14.49 27.51ZM24.49 11.98C24.6339 11.982 24.7741 12.0265 24.8928 12.1079C25.0115 12.1893 25.1035 12.3039 25.1572 12.4375C25.211 12.5711 25.224 12.7175 25.1947 12.8584C25.1654 12.9993 25.0952 13.1286 24.9927 13.2297C24.8902 13.3308 24.7601 13.3991 24.6188 13.4265C24.4775 13.4539 24.3312 13.4391 24.1984 13.3835C24.0656 13.328 23.9522 13.2343 23.8724 13.1145C23.7926 12.9947 23.75 12.8539 23.75 12.71C23.75 12.6124 23.7695 12.5159 23.8074 12.426C23.8453 12.3361 23.9009 12.2546 23.9708 12.1865C24.0408 12.1185 24.1236 12.0653 24.2145 12.0298C24.3054 11.9943 24.4025 11.9773 24.5 11.98H24.49ZM18.59 13.1301C19.6742 13.1301 20.7342 13.4516 21.6356 14.0542C22.537 14.6568 23.2394 15.5132 23.6538 16.5151C24.0683 17.5171 24.1762 18.6196 23.9639 19.6829C23.7517 20.7461 23.2288 21.7225 22.4614 22.4885C21.694 23.2545 20.7166 23.7755 19.653 23.9858C18.5893 24.1962 17.4871 24.0862 16.486 23.6699C15.4848 23.2536 14.6296 22.5497 14.0287 21.6472C13.4278 20.7447 13.108 19.6844 13.11 18.6001C13.1113 17.8805 13.2544 17.168 13.531 16.5037C13.8076 15.8393 14.2123 15.236 14.7221 14.728C15.2319 14.2201 15.8368 13.8174 16.5022 13.5432C17.1675 13.269 17.8803 13.1288 18.6 13.1301H18.59Z" fill="#F0F0F2"/>
<path d="M18.6 22.03C19.2792 22.032 19.9438 21.8321 20.5094 21.456C21.075 21.0799 21.5162 20.5443 21.777 19.9172C22.0379 19.29 22.1066 18.5996 21.9746 17.9333C21.8426 17.267 21.5157 16.6548 21.0354 16.1745C20.5551 15.6942 19.943 15.3673 19.2767 15.2353C18.6104 15.1033 17.9199 15.1722 17.2928 15.4331C16.6656 15.6939 16.13 16.135 15.7539 16.7006C15.3777 17.2662 15.178 17.9308 15.18 18.6101C15.1827 19.5163 15.5438 20.3845 16.1846 21.0253C16.8254 21.6661 17.6938 22.0273 18.6 22.03Z" fill="#F0F0F2"/>
</svg>
