<svg width="38" height="39" viewBox="0 0 38 39" fill="none" xmlns="http://www.w3.org/2000/svg">
<path d="M18.6 0.819827C14.9217 0.821804 11.3265 1.91448 8.26909 3.95948C5.21165 6.00447 2.82922 8.90972 1.42296 12.3086C0.0167056 15.7075 -0.350234 19.4473 0.36858 23.0547C1.08739 26.6621 2.85964 29.9754 5.46129 32.5757C8.06295 35.1759 11.3772 36.9462 14.985 37.6631C18.5927 38.38 22.3321 38.0111 25.7302 36.603C29.1283 35.1949 32.0326 32.811 34.076 29.7524C36.1193 26.6939 37.2099 23.0982 37.2099 19.4199C37.2099 16.9765 36.7286 14.5566 35.7932 12.2993C34.8578 10.042 33.4868 7.99146 31.7586 6.26416C30.0304 4.53686 27.9787 3.16706 25.7209 2.23291C23.4631 1.29876 21.0434 0.818513 18.6 0.819827ZM13.0199 28.1597H8.66997V15.1597H13.0199V28.1597ZM10.85 12.6397C10.3333 12.6396 9.82834 12.4865 9.39891 12.1992C8.96949 11.912 8.63498 11.5039 8.43773 11.0264C8.24049 10.5489 8.18936 10.0237 8.29088 9.51709C8.3924 9.01053 8.64197 8.54528 9.00798 8.18067C9.374 7.81605 9.84003 7.56833 10.347 7.46875C10.8539 7.36918 11.379 7.42202 11.8557 7.6211C12.3324 7.82018 12.7394 8.15639 13.025 8.58692C13.3105 9.01744 13.4619 9.52292 13.4599 10.0396C13.4613 10.3822 13.3947 10.7219 13.2638 11.0386C13.133 11.3553 12.9406 11.6429 12.6979 11.8848C12.4551 12.1266 12.1668 12.3177 11.8496 12.4473C11.5324 12.5769 11.1926 12.6423 10.85 12.6397ZM28.97 28.1597H24.62V20.5098C24.6402 20.2117 24.5989 19.9128 24.4988 19.6313C24.3986 19.3499 24.2417 19.0923 24.0378 18.874C23.8338 18.6558 23.5872 18.4818 23.3132 18.3628C23.0392 18.2438 22.7437 18.1821 22.445 18.1821C22.1463 18.1821 21.8507 18.2438 21.5767 18.3628C21.3027 18.4818 21.0561 18.6558 20.8522 18.874C20.6482 19.0923 20.4913 19.3499 20.3912 19.6313C20.291 19.9128 20.2497 20.2117 20.2699 20.5098V28.1899H15.92V15.1899H20.2699V16.9297C20.6814 16.3405 21.2226 15.8536 21.852 15.5068C22.4814 15.1601 23.1821 14.9627 23.9 14.9297C25.239 14.9478 26.518 15.4877 27.465 16.4346C28.4119 17.3815 28.9518 18.661 28.97 20V28.1597Z" fill="#F0F0F2"/>
</svg>
