<svg width="186" height="31" viewBox="0 0 186 31" fill="none" xmlns="http://www.w3.org/2000/svg">
<path d="M120.521 3.73004C120.517 3.28068 120.646 2.84025 120.893 2.46455C121.139 2.08885 121.492 1.79479 121.906 1.61962C122.32 1.44445 122.776 1.39606 123.217 1.48057C123.659 1.56507 124.065 1.77869 124.385 2.09434C124.705 2.40999 124.924 2.81348 125.014 3.25369C125.105 3.6939 125.062 4.15102 124.892 4.56714C124.723 4.98326 124.433 5.33966 124.061 5.59119C123.689 5.84271 123.25 5.97805 122.801 5.98004C122.2 5.98271 121.623 5.74747 121.196 5.32579C120.769 4.90412 120.526 4.33035 120.521 3.73004ZM120.901 7.86004H124.711V23.86H120.901V7.86004Z" fill="black"/>
<path d="M128.001 7.86004H131.771V10.14C132.202 9.33769 132.847 8.67016 133.633 8.21122C134.42 7.75228 135.319 7.51979 136.229 7.53945C137.14 7.55911 138.027 7.83016 138.794 8.32263C139.56 8.8151 140.175 9.50983 140.571 10.33C141.571 8.33004 143.491 7.54004 145.811 7.54004C149.331 7.54004 151.371 10.02 151.371 13.95V23.86H147.561V14.49C147.561 12.33 146.561 10.94 144.701 10.94C142.841 10.94 141.521 12.46 141.521 14.65V23.86H137.741V14.49C137.741 12.33 136.741 10.94 134.891 10.94C133.041 10.94 131.771 12.46 131.771 14.65V23.86H128.001V7.86004Z" fill="black"/>
<path d="M174.001 1.73004H177.811V23.86H174.001V1.73004Z" fill="black"/>
<path d="M180.681 3.73003C180.677 3.28239 180.806 2.8436 181.05 2.46886C181.295 2.09411 181.645 1.80014 182.057 1.6239C182.469 1.44766 182.923 1.39703 183.363 1.47837C183.803 1.55971 184.21 1.7694 184.531 2.08106C184.852 2.39271 185.074 2.79243 185.169 3.22994C185.264 3.66745 185.227 4.12322 185.064 4.53993C184.9 4.95664 184.617 5.31569 184.25 5.57193C183.883 5.82817 183.448 5.97016 183.001 5.98003C182.7 5.98667 182.401 5.93351 182.121 5.82366C181.841 5.71381 181.586 5.54944 181.37 5.34011C181.154 5.13078 180.982 4.88065 180.864 4.60426C180.746 4.32786 180.683 4.0307 180.681 3.73003ZM181.061 7.86003H184.871V23.86H181.061V7.86003Z" fill="black"/>
<path d="M154.65 30.85V7.85003H158.46V10.14C159 8.64003 160.88 7.47003 163.57 7.47003C165.756 7.47003 167.852 8.33817 169.397 9.88347C170.942 11.4288 171.81 13.5246 171.81 15.71C171.81 17.8954 170.942 19.9913 169.397 21.5366C167.852 23.0819 165.756 23.95 163.57 23.95C160.91 23.95 159.07 22.87 158.37 21.6V30.81L154.65 30.85ZM167.8 15.85C167.819 15.2191 167.711 14.5908 167.481 14.0028C167.251 13.4149 166.905 12.8794 166.463 12.4284C166.022 11.9774 165.494 11.6202 164.91 11.3782C164.327 11.1362 163.702 11.0144 163.07 11.02C162.418 10.9903 161.767 11.0931 161.156 11.3222C160.544 11.5513 159.986 11.9019 159.514 12.3529C159.042 12.8039 158.666 13.3458 158.41 13.946C158.153 14.5462 158.021 15.1922 158.021 15.845C158.021 16.4978 158.153 17.1438 158.41 17.744C158.666 18.3442 159.042 18.8862 159.514 19.3372C159.986 19.7881 160.544 20.1388 161.156 20.3678C161.767 20.5969 162.418 20.6997 163.07 20.67C163.706 20.6802 164.338 20.5602 164.925 20.3172C165.513 20.0743 166.045 19.7136 166.488 19.2573C166.931 18.8011 167.276 18.259 167.502 17.6645C167.728 17.0699 167.829 16.4354 167.8 15.8V15.85Z" fill="black"/>
<path d="M104.46 17.46C104.974 18.5312 105.788 19.4297 106.804 20.0458C107.82 20.662 108.993 20.9692 110.18 20.93C113.35 20.93 114.04 19.06 114.04 17.93C114.04 15.87 112.17 15.09 109.39 14.04C105.73 12.67 102.85 11.16 102.85 7.14003C102.85 3.38003 106.06 0.990032 109.92 0.990032C111.309 0.936313 112.688 1.25013 113.917 1.89978C115.146 2.54944 116.182 3.51192 116.92 4.69003L114.01 6.69003C113.574 6.02476 112.967 5.48846 112.253 5.13678C111.539 4.7851 110.744 4.63085 109.95 4.69003C108.15 4.69003 106.85 5.69003 106.85 7.11003C106.85 9.20003 108.68 9.56003 112.01 10.93C116.16 12.6 118.09 14.37 118.09 17.86C118.09 21.72 115.48 24.6 110.09 24.6C105.74 24.6 102.73 22.54 101.32 19.4L104.46 17.46Z" fill="black"/>
<path d="M24.5107 7.86004H28.2907V10.24C28.7359 9.37606 29.4232 8.66055 30.2686 8.18103C31.114 7.7015 32.0808 7.47876 33.0507 7.54004C33.4362 7.54138 33.8208 7.57483 34.2007 7.64004V11.32C33.6788 11.2029 33.1457 11.1425 32.6107 11.14C32.0339 11.0921 31.4535 11.1699 30.9096 11.3681C30.3657 11.5662 29.8714 11.8801 29.4606 12.288C29.0499 12.6959 28.7326 13.1881 28.5306 13.7305C28.3286 14.273 28.2468 14.8529 28.2907 15.43V23.84H24.5107V7.86004Z" fill="black"/>
<path d="M37.001 7.86002H40.851V17.19C40.851 19.7 42.341 20.78 44.341 20.78C46.341 20.78 47.831 19.7 47.831 17.16V7.86002H51.671V17.42C51.671 22.05 48.311 24.27 44.311 24.27C40.311 24.27 37.001 22.08 37.001 17.51V7.86002Z" fill="black"/>
<path d="M83.4102 24.76C88.3807 24.76 92.4102 20.7306 92.4102 15.76C92.4102 10.7895 88.3807 6.76004 83.4102 6.76004C78.4396 6.76004 74.4102 10.7895 74.4102 15.76C74.4102 20.7306 78.4396 24.76 83.4102 24.76Z" fill="black"/>
<path d="M55.001 30.85V7.85003H58.811V10.14C59.351 8.64003 61.231 7.47003 63.931 7.47003C66.1164 7.47003 68.2122 8.33817 69.7575 9.88347C71.3028 11.4288 72.171 13.5246 72.171 15.71C72.171 17.8954 71.3028 19.9913 69.7575 21.5366C68.2122 23.0819 66.1164 23.95 63.931 23.95C61.261 23.95 59.421 22.87 58.721 21.6V30.81L55.001 30.85ZM68.151 15.85C68.1698 15.2191 68.0611 14.5908 67.8314 14.0028C67.6016 13.4149 67.2556 12.8794 66.8139 12.4284C66.3722 11.9774 65.8441 11.6202 65.2611 11.3782C64.6781 11.1362 64.0522 11.0144 63.421 11.02C62.7689 10.9903 62.1175 11.0931 61.5062 11.3222C60.895 11.5513 60.3365 11.9019 59.8645 12.3529C59.3925 12.8039 59.0169 13.3458 58.7602 13.946C58.5036 14.5462 58.3713 15.1922 58.3713 15.845C58.3713 16.4978 58.5036 17.1438 58.7602 17.744C59.0169 18.3442 59.3925 18.8862 59.8645 19.3372C60.3365 19.7881 60.895 20.1388 61.5062 20.3678C62.1175 20.5969 62.7689 20.6997 63.421 20.67C64.056 20.6789 64.6862 20.5578 65.2728 20.3142C65.8594 20.0706 66.39 19.7097 66.832 19.2537C67.274 18.7976 67.6181 18.256 67.8432 17.6621C68.0683 17.0682 68.1697 16.4345 68.141 15.8L68.151 15.85Z" fill="black"/>
<path d="M12.1005 1.00005C13.6706 0.978415 15.229 1.27168 16.6838 1.86253C18.1386 2.45337 19.4602 3.32981 20.5705 4.44005L17.8505 6.92005C16.3025 5.44935 14.2353 4.65121 12.1005 4.70005C9.95494 4.70005 7.89722 5.55238 6.38005 7.06955C4.86289 8.58672 4.01055 10.6444 4.01055 12.79C4.01055 14.9356 4.86289 16.9934 6.38005 18.5105C7.89722 20.0277 9.95494 20.88 12.1005 20.88C14.1045 20.9074 16.0484 20.1954 17.5605 18.88V14.74H11.2205V11.14H21.4205V20.32C20.2836 21.6829 18.8571 22.775 17.2448 23.5172C15.6326 24.2593 13.8752 24.6326 12.1005 24.61C8.97364 24.61 5.97481 23.3679 3.76376 21.1568C1.5527 18.9458 0.310547 15.9469 0.310547 12.82C0.310547 9.69314 1.5527 6.69431 3.76376 4.48326C5.97481 2.2722 8.97364 1.03005 12.1005 1.03005V1.00005Z" fill="black"/>
</svg>
